<svg width="54" height="55" viewBox="0 0 54 55" fill="none" xmlns="http://www.w3.org/2000/svg">
<path d="M30.375 17.6394H33.75V21.0144H30.375V17.6394Z" fill="white"/>
<path d="M20.25 17.6394H23.625V21.0144H20.25V17.6394Z" fill="white"/>
<path d="M43.875 34.5144H35.4375V31.1394H37.125C38.0198 31.1385 38.8778 30.7826 39.5105 30.1499C40.1432 29.5172 40.4991 28.6592 40.5 27.7644V21.0144H43.875V17.6394H40.5V14.2644C40.4991 13.3696 40.1432 12.5116 39.5105 11.8789C38.8778 11.2462 38.0198 10.8903 37.125 10.8894H33.75V4.1394H30.375V10.8894H23.625V4.1394H20.25V10.8894H16.875C15.9802 10.8903 15.1222 11.2462 14.4895 11.8789C13.8568 12.5116 13.5009 13.3696 13.5 14.2644V17.6394H10.125V21.0144H13.5V27.7644C13.5009 28.6592 13.8568 29.5172 14.4895 30.1499C15.1222 30.7826 15.9802 31.1385 16.875 31.1394H18.5625V34.5144H10.125C9.23017 34.5153 8.37224 34.8712 7.7395 35.5039C7.10676 36.1366 6.75089 36.9946 6.75 37.8894V51.3894H10.125V37.8894H43.875V51.3894H47.25V37.8894C47.2491 36.9946 46.8932 36.1366 46.2605 35.5039C45.6278 34.8712 44.7698 34.5153 43.875 34.5144ZM16.875 14.2644H37.125V27.7644H16.875V14.2644ZM21.9375 31.1394H32.0625V34.5144H21.9375V31.1394Z" fill="white"/>
</svg>
