<svg width="41" height="43" viewBox="0 0 41 43" fill="none" xmlns="http://www.w3.org/2000/svg">
<path d="M2.6875 21.2644H38.3125" stroke="white" stroke-width="4" stroke-linecap="round" stroke-linejoin="round"/>
<path d="M24.25 2.5144H16.75C16.2527 2.5144 15.7758 2.71195 15.4242 3.06358C15.0725 3.41521 14.875 3.89212 14.875 4.3894V11.8894C14.875 12.3867 15.0725 12.8636 15.4242 13.2152C15.7758 13.5669 16.2527 13.7644 16.75 13.7644H24.25C24.7473 13.7644 25.2242 13.5669 25.5758 13.2152C25.9275 12.8636 26.125 12.3867 26.125 11.8894V4.3894C26.125 3.89212 25.9275 3.41521 25.5758 3.06358C25.2242 2.71195 24.7473 2.5144 24.25 2.5144V2.5144Z" stroke="white" stroke-width="4" stroke-linejoin="round"/>
<path d="M13 28.7644H5.5C5.00272 28.7644 4.52581 28.9619 4.17417 29.3136C3.82254 29.6652 3.625 30.1421 3.625 30.6394V38.1394C3.625 38.6367 3.82254 39.1136 4.17417 39.4652C4.52581 39.8169 5.00272 40.0144 5.5 40.0144H13C13.4973 40.0144 13.9742 39.8169 14.3258 39.4652C14.6775 39.1136 14.875 38.6367 14.875 38.1394V30.6394C14.875 30.1421 14.6775 29.6652 14.3258 29.3136C13.9742 28.9619 13.4973 28.7644 13 28.7644V28.7644Z" stroke="white" stroke-width="4" stroke-linejoin="round"/>
<path d="M35.5 28.7644H28C27.5027 28.7644 27.0258 28.9619 26.6742 29.3136C26.3225 29.6652 26.125 30.1421 26.125 30.6394V38.1394C26.125 38.6367 26.3225 39.1136 26.6742 39.4652C27.0258 39.8169 27.5027 40.0144 28 40.0144H35.5C35.9973 40.0144 36.4742 39.8169 36.8258 39.4652C37.1775 39.1136 37.375 38.6367 37.375 38.1394V30.6394C37.375 30.1421 37.1775 29.6652 36.8258 29.3136C36.4742 28.9619 35.9973 28.7644 35.5 28.7644Z" stroke="white" stroke-width="4" stroke-linejoin="round"/>
<path d="M20.5 21.2644V13.7644" stroke="white" stroke-width="4" stroke-linecap="round" stroke-linejoin="round"/>
<path d="M31.75 28.7644V21.2644" stroke="white" stroke-width="4" stroke-linecap="round" stroke-linejoin="round"/>
<path d="M9.25 28.7644V21.2644" stroke="white" stroke-width="4" stroke-linecap="round" stroke-linejoin="round"/>
</svg>
