<svg width="46" height="47" viewBox="0 0 46 47" fill="none" xmlns="http://www.w3.org/2000/svg">
<path d="M41.2665 11.2479L35.5165 5.49789C35.383 5.3644 35.2245 5.2585 35.0501 5.18626C34.8757 5.11401 34.6888 5.07683 34.5 5.07683C34.3112 5.07683 34.1243 5.11401 33.9499 5.18626C33.7755 5.2585 33.617 5.3644 33.4835 5.49789L16.2335 22.7479C16.1 22.8814 15.9941 23.0399 15.9219 23.2143C15.8497 23.3887 15.8125 23.5756 15.8125 23.7644V29.5144C15.8125 29.8956 15.964 30.2613 16.2335 30.5308C16.5031 30.8004 16.8688 30.9519 17.25 30.9519H23C23.1888 30.9519 23.3757 30.9147 23.5501 30.8425C23.7245 30.7702 23.883 30.6644 24.0165 30.5309L41.2665 13.2809C41.4 13.1474 41.5059 12.9889 41.5781 12.8145C41.6504 12.6401 41.6875 12.4532 41.6875 12.2644C41.6875 12.0756 41.6504 11.8887 41.5781 11.7143C41.5059 11.5398 41.4 11.3814 41.2665 11.2479ZM22.4047 28.0769H18.6875V24.3599L30.1875 12.8599L33.9045 16.5769L22.4047 28.0769ZM35.9375 14.5439L32.2205 10.8269L34.5 8.54736L38.2172 12.2644L35.9375 14.5439ZM40.25 22.3269V38.1394C40.2491 38.9016 39.946 39.6324 39.407 40.1714C38.868 40.7103 38.1372 41.0135 37.375 41.0144H8.625C7.86277 41.0135 7.132 40.7103 6.59301 40.1714C6.05403 39.6324 5.75086 38.9016 5.75 38.1394V9.38938C5.75086 8.62715 6.05403 7.89638 6.59301 7.35739C7.132 6.81841 7.86277 6.51524 8.625 6.51438H24.4375C24.8187 6.51438 25.1844 6.66583 25.454 6.93541C25.7235 7.205 25.875 7.57063 25.875 7.95188C25.875 8.33313 25.7235 8.69876 25.454 8.96835C25.1844 9.23793 24.8187 9.38938 24.4375 9.38938H8.625V38.1394H37.375V22.3269C37.375 21.9456 37.5264 21.58 37.796 21.3104C38.0656 21.0408 38.4312 20.8894 38.8125 20.8894C39.1937 20.8894 39.5594 21.0408 39.829 21.3104C40.0985 21.58 40.25 21.9456 40.25 22.3269Z" fill="white"/>
</svg>
