<svg width="48" height="49" viewBox="0 0 48 49" fill="none" xmlns="http://www.w3.org/2000/svg">
<path d="M34.5 11.2644H40.5V17.2644H34.5V11.2644Z" fill="white"/>
<path d="M34.5 20.2644H40.5V26.2644H34.5V20.2644Z" fill="white"/>
<path d="M25.5 11.2644H31.5V17.2644H25.5V11.2644Z" fill="white"/>
<path d="M25.5 20.2644H31.5V26.2644H25.5V20.2644Z" fill="white"/>
<path d="M21.75 39.7644C22.9926 39.7644 24 38.757 24 37.5144C24 36.2718 22.9926 35.2644 21.75 35.2644C20.5074 35.2644 19.5 36.2718 19.5 37.5144C19.5 38.757 20.5074 39.7644 21.75 39.7644Z" fill="white"/>
<path d="M31.5 45.7644H12C11.2046 45.7636 10.442 45.4473 9.87956 44.8848C9.31712 44.3224 9.00079 43.5598 9 42.7644V6.7644C9.00079 5.969 9.31712 5.2064 9.87956 4.64396C10.442 4.08152 11.2046 3.7652 12 3.7644H31.5V6.7644H12V42.7644H31.5V30.7644H34.5V42.7644C34.4992 43.5598 34.1829 44.3224 33.6204 44.8848C33.058 45.4473 32.2954 45.7636 31.5 45.7644Z" fill="white"/>
</svg>
