<svg width="44" height="44" viewBox="0 0 44 44" fill="none" xmlns="http://www.w3.org/2000/svg">
<path d="M16.9375 33.0144L15.25 39.7644L13 42.0144H31L28.75 39.7644L27.0625 33.0144H16.9375ZM1.75 24.0144H42.25H1.75ZM6.25 33.0144H37.75C38.9435 33.0144 40.0881 32.5403 40.932 31.6964C41.7759 30.8525 42.25 29.7079 42.25 28.5144V6.0144C42.25 4.82093 41.7759 3.67634 40.932 2.83242C40.0881 1.98851 38.9435 1.5144 37.75 1.5144H6.25C5.05653 1.5144 3.91193 1.98851 3.06802 2.83242C2.22411 3.67634 1.75 4.82093 1.75 6.0144V28.5144C1.75 29.7079 2.22411 30.8525 3.06802 31.6964C3.91193 32.5403 5.05653 33.0144 6.25 33.0144Z" stroke="white" stroke-width="3" stroke-linecap="round" stroke-linejoin="round"/>
</svg>
